<svg fill="url(#gradient)" xmlns="http://www.w3.org/2000/svg"  viewBox="0 0 24 24" width="48px" height="48px">
    <defs>
        <linearGradient id="gradient">
            <stop offset="50%" style="stop-color: #4A569D"></stop>
            <stop offset="100%" style="stop-color: #DC2424"></stop>
        </linearGradient>
    </defs>
    <path d="M18 15v-5h3.5c1.381 0 2.5 1.119 2.5 2.5v0c0 1.381-1.119 2.5-2.5 2.5H18zM14 6H9V2.5C9 1.119 10.119 0 11.5 0h0C12.881 0 14 1.119 14 2.5V6z"/><path d="M18,4H5C3.895,4,3,4.895,3,6v3c0,0.552,0.448,1,1,1h0.357c1.308,0,2.499,0.941,2.63,2.242C7.137,13.739,5.966,15,4.5,15H4c-0.552,0-1,0.448-1,1v3c0,1.105,0.895,2,2,2h3c0.552,0,1-0.448,1-1v-0.357c0-1.308,0.941-2.499,2.242-2.63C12.739,16.863,14,18.034,14,19.5V20c0,0.552,0.448,1,1,1h3c1.105,0,2-0.895,2-2V6C20,4.895,19.105,4,18,4z"/></svg>