<?xml version="1.0" standalone="no"?>
<!DOCTYPE svg PUBLIC "-//W3C//DTD SVG 20010904//EN"
        "http://www.w3.org/TR/2001/REC-SVG-20010904/DTD/svg10.dtd">
<svg version="1.0" xmlns="http://www.w3.org/2000/svg"
     width="512.000000pt" height="512.000000pt" viewBox="0 0 512.000000 512.000000"
     preserveAspectRatio="xMidYMid meet">

    <defs>
        <linearGradient id="gradient">
            <stop offset="0%" style="stop-color: #DC2424"></stop>
            <stop offset="50%" style="stop-color: #4A569D"></stop>
            <stop offset="100%" style="stop-color: #DC2424"></stop>
        </linearGradient>
    </defs>

    <g transform="translate(0.000000,512.000000) scale(0.100000,-0.100000)"
       fill="url(#gradient)">
        <path d="M4139 5107 c-20 -8 -49 -23 -65 -35 -16 -11 -196 -188 -401 -394
-321 -322 -376 -381 -400 -433 l-28 -60 -5 -392 -5 -393 -503 -503 c-469 -469
-504 -506 -509 -544 -13 -101 96 -170 182 -113 16 11 246 239 511 507 l481
488 399 5 399 5 55 28 c42 22 142 115 433 405 208 208 390 397 405 422 23 38
27 57 27 115 -1 83 -24 136 -82 184 -64 53 -111 61 -355 61 l-218 0 0 218 c0
244 -8 291 -61 355 -17 21 -49 47 -72 58 -51 27 -140 34 -188 16z m-289 -1092
l-370 -370 0 249 0 250 368 368 367 369 3 -248 2 -248 -370 -370z m1020 197
c0 -4 -163 -170 -363 -370 l-363 -362 -249 0 -250 0 370 370 371 370 242 0
c133 0 242 -3 242 -8z"/>
        <path d="M2060 4574 c-387 -48 -716 -166 -1018 -363 -790 -518 -1182 -1458
-992 -2381 132 -643 532 -1195 1104 -1525 819 -470 1847 -387 2581 210 470
383 766 930 836 1545 17 150 7 463 -20 615 -25 139 -57 263 -74 285 -55 72
-164 63 -202 -16 -20 -42 -19 -45 10 -166 44 -179 57 -321 52 -538 -5 -196
-17 -296 -58 -455 -66 -260 -189 -514 -350 -726 -79 -105 -250 -282 -349 -362
-619 -500 -1469 -596 -2185 -248 -1023 499 -1445 1736 -940 2753 308 621 907
1043 1598 1129 64 7 170 10 305 6 207 -6 242 -10 497 -69 43 -9 56 -8 86 6 85
40 93 158 15 205 -32 19 -142 47 -301 76 -87 17 -508 29 -595 19z"/>
        <path d="M2110 3850 c-372 -52 -668 -197 -920 -450 -138 -138 -222 -254 -301
-415 -128 -264 -175 -504 -157 -807 41 -678 536 -1253 1218 -1415 130 -30 417
-43 551 -24 915 132 1524 1010 1318 1901 -54 235 -93 300 -178 300 -53 0 -84
-18 -106 -60 -21 -41 -19 -60 19 -179 149 -461 37 -960 -295 -1315 -405 -433
-1039 -543 -1574 -274 -332 167 -598 507 -683 873 -109 468 33 942 383 1273
358 339 875 450 1344 288 86 -30 111 -32 151 -11 43 22 60 53 60 108 0 40 -5
54 -28 77 -33 32 -173 81 -322 111 -110 22 -380 33 -480 19z"/>
        <path d="M2190 3130 c-212 -29 -409 -136 -542 -294 -68 -81 -139 -215 -168
-316 -27 -95 -37 -263 -21 -355 73 -431 445 -734 871 -712 131 7 210 27 326
82 295 142 475 425 476 752 0 111 -9 137 -57 169 -31 20 -98 20 -126 1 -43
-30 -51 -54 -54 -160 -4 -116 -22 -191 -65 -276 -97 -193 -290 -318 -510 -329
-176 -8 -324 50 -450 177 -132 132 -186 272 -177 451 6 122 34 209 98 304 59
89 130 153 219 200 95 50 162 67 284 71 122 5 149 16 172 71 15 37 11 87 -9
115 -36 48 -137 67 -267 49z"/>
    </g>
</svg>
